# xmcd
#
# Track frame offsets:
#	150
#	12665
#	25613
#	36714
#	50455
#	63798
#	76143
#	87117
#	101928
#	111947
#	124830
#	137138
#	151223
#	163418
#	175531
#	186955
#	200103
#	212791
#	224513
#	236615
#	249394
#	263192
#	274615
#	287911
#	299674
#	309619
#
# Disc length: 4269 seconds
#
# Revision: 0
# Processed by: cddbd v1.5.2PL0 Copyright (c) Steve Scherf et al.
# Submitted via: audiograbber 1.83.01
#
DISCID=9110ab1a
DTITLE=Various Artist - History Of Rhythm And Blues 1942-1952 [CD3]
DYEAR=2009
DGENRE=Blues
TTITLE0=Wynonie Harris - Good Rockin' Tonight
TTITLE1=Wild Bill Moore - Rock And Roll
TTITLE2=Roy Brown - Butcher Pete
TTITLE3=Louis Jordan - Saturday Night Fish Fry
TTITLE4=Hal Singer - Rock Around The Clock
TTITLE5=Goree Carter - Rock A While
TTITLE6=Ralph Willis - I'm Gonna Rock
TTITLE7=Stick McGhee - Drinkin' Wine Spo Dee Oh Dee
TTITLE8=Lost John Hunter - Cool Down Mama
TTITLE9=Jackie Brenston - Rocket 88
TTITLE10=Howlin' Wolf - How Many More Years
TTITLE11=Rosco Gordon - Booted
TTITLE12=Tiny Bradshaw - Well Oh Well
TTITLE13=Wynonie Harris - Good Mornin' Judge
TTITLE14=Arthur Crudup - My Baby Left Me
TTITLE15=The Larks - Eyesight To The Blind
TTITLE16=Elmore James - Dust My Broom
TTITLE17=Jimmy Witherspoon - Two Little Girls
TTITLE18=Amos Milburn - Let's Rock Awhile
TTITLE19=Little Wille Littlefield - Rockin' Chair Mama
TTITLE20=Joe Liggins - Pink Champagne
TTITLE21=The Dominoes - Sixty Minute Man
TTITLE22=Fluffy Hunter - Walk Right In
TTITLE23=The Swallows - It Ain't The Meat
TTITLE24=Bull Moose Jackson - Big Ten Inch
TTITLE25=Treniers - Go Go Go
EXTD=
EXTT0=
EXTT1=
EXTT2=
EXTT3=
EXTT4=
EXTT5=
EXTT6=
EXTT7=
EXTT8=
EXTT9=
EXTT10=
EXTT11=
EXTT12=
EXTT13=
EXTT14=
EXTT15=
EXTT16=
EXTT17=
EXTT18=
EXTT19=
EXTT20=
EXTT21=
EXTT22=
EXTT23=
EXTT24=
EXTT25=
PLAYORDER=
